<?xml version="1.0" encoding="UTF-8" standalone="no"?>
<svg width="10px" height="20px" viewBox="0 0 10 20" version="1.1" xmlns="http://www.w3.org/2000/svg" xmlns:xlink="http://www.w3.org/1999/xlink">
    <!-- Generator: Sketch 3.8.3 (29802) - http://www.bohemiancoding.com/sketch -->
    <title>Facebook icon</title>
    <desc>Created with Sketch.</desc>
    <defs></defs>
    <g id="Style-Guide" stroke="none" stroke-width="1" fill="none" fill-rule="evenodd">
        <g transform="translate(-815.000000, -4050.000000)" id="Iconography" fill="#3B5998">
            <g transform="translate(220.000000, 3977.000000)">
                <g id="icons-social" transform="translate(595.000000, 73.000000)">
                    <g id="social-facebook">
                        <path d="M7.74590164,3.3984375 C7.55464385,3.3984375 7.39071107,3.42447891 7.25409836,3.4765625 C7.11748566,3.52864609 7.00819713,3.60025996 6.92622951,3.69140625 C6.84426189,3.78255254 6.78278709,3.89322852 6.74180328,4.0234375 C6.70081947,4.15364648 6.68032787,4.28385352 6.68032787,4.4140625 L6.68032787,6.4453125 L9.95901639,6.4453125 L9.59016393,10.0390625 L6.68032787,10.0390625 L6.68032787,20 L2.25409836,20 L2.25409836,10.0390625 L0,10.0390625 L0,6.4453125 L2.25409836,6.4453125 L2.25409836,4.4140625 C2.25409836,3.81510117 2.31557316,3.25521094 2.43852459,2.734375 C2.56147602,2.21353906 2.78688361,1.7513041 3.1147541,1.34765625 C3.44262459,0.944008398 3.89343975,0.625001172 4.46721311,0.390625 C5.04098648,0.156248828 5.77868402,0.0260417969 6.68032787,0 L9.95901639,0 C9.98633893,0 10,0.175779492 10,0.52734375 L10,1.69921875 L10,2.87109375 L10,3.3984375 L7.74590164,3.3984375 Z" id="Path"></path>
                    </g>
                </g>
            </g>
        </g>
    </g>
</svg>