<?xml version="1.0" encoding="UTF-8" standalone="no"?>
<svg width="32px" height="20px" viewBox="0 0 32 20" version="1.1" xmlns="http://www.w3.org/2000/svg" xmlns:xlink="http://www.w3.org/1999/xlink">
    <!-- Generator: Sketch 3.8.3 (29802) - http://www.bohemiancoding.com/sketch -->
    <title>Google icon</title>
    <desc>Created with Sketch.</desc>
    <defs></defs>
    <g id="Style-Guide" stroke="none" stroke-width="1" fill="none" fill-rule="evenodd">
        <g transform="translate(-845.000000, -4050.000000)" id="Iconography" fill="#DC4E41">
            <g transform="translate(220.000000, 3977.000000)">
                <g id="icons-social" transform="translate(595.000000, 73.000000)">
                    <g id="social-google" transform="translate(30.000000, 0.000000)">
                        <path d="M28.3161807,8.21782178 L28.3161807,4.75247525 L25.8147513,4.75247525 L25.8147513,8.21782178 L22.212693,8.21782178 L22.212693,10.6930693 L25.8147513,10.6930693 L25.8147513,14.2574257 L28.3161807,14.2574257 L28.3161807,10.6930693 L31.8181818,10.6930693 L31.8181818,8.21782178 L28.3161807,8.21782178 Z M10.1057747,8.01980198 L10.1057747,11.980198 C10.1057747,11.980198 13.9883934,11.9750495 15.5692967,11.9750495 C14.7132075,14.5424752 13.3820469,15.9405941 10.1057747,15.9405941 C6.7901801,15.9405941 4.20240137,13.2808911 4.20240137,10 C4.20240137,6.71910891 6.7901801,4.05940594 10.1057747,4.05940594 C11.8587764,4.05940594 12.9909234,4.66910891 14.0294168,5.51891089 C14.8606918,4.69633663 14.7912521,4.57910891 16.9061607,2.60277228 C15.1108348,0.985742574 12.7246712,0 10.1057747,0 C4.52448542,0 0,4.47712871 0,10 C0,15.5227723 4.52448542,20 10.1057747,20 C18.4482419,20 20.487307,12.8118812 19.8113208,8.01980198 L10.1057747,8.01980198 Z" id="Paths"></path>
                    </g>
                </g>
            </g>
        </g>
    </g>
</svg>