<?xml version="1.0" encoding="UTF-8" standalone="no"?>
<svg width="21px" height="20px" viewBox="0 0 21 20" version="1.1" xmlns="http://www.w3.org/2000/svg" xmlns:xlink="http://www.w3.org/1999/xlink">
    <!-- Generator: Sketch 3.8.3 (29802) - http://www.bohemiancoding.com/sketch -->
    <title>Linkedin icon</title>
    <desc>Created with Sketch.</desc>
    <defs></defs>
    <g id="Style-Guide" stroke="none" stroke-width="1" fill="none" fill-rule="evenodd">
        <g transform="translate(-895.000000, -4050.000000)" id="Iconography" fill="#0077B5">
            <g transform="translate(220.000000, 3977.000000)">
                <g id="icons-social" transform="translate(595.000000, 73.000000)">
                    <g id="social-linkedin" transform="translate(80.000000, 0.000000)">
                        <path d="M14.2122074,6.40060563 C13.7623223,6.55056732 13.3806074,6.73460846 13.0670511,6.95273455 C12.7534949,7.17086065 12.4876577,7.40943249 12.2695316,7.66845723 C12.0514055,7.92748197 11.8741807,8.17968648 11.7378519,8.42507834 L11.7378519,6.50285173 L7.23902362,6.50285173 C7.26628938,6.80277511 7.27992206,7.67526641 7.27992206,9.1203518 C7.27992206,10.5654372 7.27310572,12.092297 7.25947284,13.7009769 C7.24583996,15.3096569 7.23902362,16.7615369 7.23902362,18.0566606 L7.23902362,19.9993364 L11.7378519,19.9993364 L11.7378519,12.4740238 L11.7378519,12.1672855 C11.7378519,12.0718553 11.7446682,11.9764266 11.7583011,11.8809964 C11.771934,11.7855662 11.7855666,11.6901375 11.7991995,11.5947073 C11.8128324,11.4992772 11.8332814,11.4242974 11.8605472,11.3697659 C11.9423445,11.1516398 12.0514059,10.9471497 12.1877347,10.7562893 C12.3240635,10.565429 12.4876556,10.3950205 12.6785159,10.2450589 C12.8693763,10.0950972 13.0874991,9.97240308 13.332891,9.87697291 C13.5782828,9.78154274 13.864569,9.73382837 14.1917582,9.73382837 C14.6007446,9.73382837 14.9483779,9.80880809 15.2346684,9.95876979 C15.5209589,10.1087315 15.7527144,10.3132216 15.9299418,10.5722464 C16.1071693,10.8312711 16.2366797,11.151639 16.318477,11.5333597 C16.4002743,11.9150803 16.4411723,12.3240606 16.4411723,12.7603128 L16.4411723,19.9993364 L20.9400005,19.9993364 L20.9400005,12.2695316 C20.9400005,11.2334326 20.8104901,10.333676 20.5514654,9.57023462 C20.2924406,8.80679328 19.9311747,8.17287382 19.4676567,7.66845723 C19.0041388,7.16404063 18.4588317,6.78914203 17.8317192,6.54375017 C17.2046067,6.29835831 16.5229729,6.17566422 15.7867973,6.17566422 C15.1869505,6.17566422 14.6620925,6.25064394 14.2122074,6.40060563 Z M0.245390631,19.9993364 L4.74421887,19.9993364 L4.74421887,6.50285173 L0.245390631,6.50285173 L0.245390631,19.9993364 Z M1.49279301,0.163593754 C1.17923674,0.272656802 0.913399551,0.436248921 0.695273455,0.654375017 C0.477147359,0.872501113 0.306738903,1.11788929 0.184042973,1.39054691 C0.0613470443,1.66320453 0,1.97675609 0,2.331211 C0,2.63113438 0.0613470443,2.92423692 0.184042973,3.21052743 C0.306738903,3.49681793 0.470331021,3.74902244 0.674824236,3.96714854 C0.879317451,4.18527463 1.13833831,4.35568309 1.45189457,4.47837902 C1.76545083,4.60107495 2.11308408,4.66242199 2.49480475,4.66242199 C2.90379118,4.66242199 3.26505711,4.60107495 3.57861337,4.47837902 C3.89216964,4.35568309 4.15800683,4.18527463 4.37613292,3.96714854 C4.59425902,3.74902244 4.75785114,3.49681793 4.86691419,3.21052743 C4.97597723,2.92423692 5.03050794,2.63113438 5.03050794,2.331211 C5.03050794,1.97675609 4.97597723,1.66320453 4.86691419,1.39054691 C4.75785114,1.11788929 4.59425902,0.872501113 4.37613292,0.654375017 C4.15800683,0.436248921 3.89216964,0.272656802 3.57861337,0.163593754 C3.26505711,0.0545307061 2.91742386,0 2.53570319,0 C2.15398252,0 1.80634927,0.0545307061 1.49279301,0.163593754 Z" id="Paths"></path>
                    </g>
                </g>
            </g>
        </g>
    </g>
</svg>