<?xml version="1.0" encoding="UTF-8" standalone="no"?>
<svg width="18px" height="18px" viewBox="0 0 18 18" version="1.1" xmlns="http://www.w3.org/2000/svg" xmlns:xlink="http://www.w3.org/1999/xlink">
    <!-- Generator: Sketch 3.8.3 (29802) - http://www.bohemiancoding.com/sketch -->
    <title>Phone icon</title>
    <desc>Created with Sketch.</desc>
    <defs></defs>
    <g id="Style-Guide" stroke="none" stroke-width="1" fill="none" fill-rule="evenodd">
        <g transform="translate(-540.000000, -4052.000000)" id="Iconography" fill="#444444">
            <g transform="translate(220.000000, 3977.000000)">
                <g id="icons-default" transform="translate(0.000000, 53.000000)">
                    <g id="phone" transform="translate(320.000000, 22.000000)">
                        <path d="M13.4,11.9 C13.1,11.8 12.7,11.9 12.4,12.1 L10.2,14.3 C7.4,12.9 5.1,10.5 3.6,7.7 L5.8,5.5 C6.1,5.2 6.2,4.8 6,4.5 C5.7,3.4 5.5,2.2 5.5,1 C5.5,0.4 5.1,0 4.5,0 L1,0 C0.4,0 0,0.4 0,1 C0,10.4 7.6,18 17,18 C17.6,18 18,17.6 18,17 L18,13.5 C18,12.9 17.6,12.5 17,12.5 C15.8,12.5 14.6,12.3 13.4,11.9 Z" id="Shape" transform="translate(9.000000, 9.000000) scale(-1, 1) translate(-9.000000, -9.000000) "></path>
                    </g>
                </g>
            </g>
        </g>
    </g>
</svg>