<?xml version="1.0" encoding="UTF-8" standalone="no"?>
<svg width="29px" height="20px" viewBox="0 0 29 20" version="1.1" xmlns="http://www.w3.org/2000/svg" xmlns:xlink="http://www.w3.org/1999/xlink">
    <!-- Generator: Sketch 3.8.3 (29802) - http://www.bohemiancoding.com/sketch -->
    <title>Twitter icon</title>
    <desc>Created with Sketch.</desc>
    <defs></defs>
    <g id="Style-Guide" stroke="none" stroke-width="1" fill="none" fill-rule="evenodd">
        <g transform="translate(-935.000000, -4050.000000)" id="Iconography" fill="#55ACEE">
            <g transform="translate(220.000000, 3977.000000)">
                <g id="icons-social" transform="translate(595.000000, 73.000000)">
                    <g id="social-twitter" transform="translate(120.000000, 0.000000)">
                        <path d="M29.0400009,9.18646641 C28.7787702,9.24451704 28.5030308,9.27354192 28.2127745,9.27354192 C27.9225182,9.27354192 27.6250099,9.25902948 27.3202407,9.23000417 C27.0154716,9.20097885 26.7252196,9.15018531 26.4494761,9.07762202 C26.1737326,9.00505873 25.9487873,8.93975275 25.7746335,8.88170212 C26.1809924,8.82365149 26.5510636,8.75108929 26.8848584,8.66401335 C27.2186532,8.5769374 27.5234178,8.44632544 27.7991613,8.27217355 C28.0749048,8.09802165 28.3071064,7.90935993 28.495773,7.70618272 C28.6844396,7.50300552 28.8223093,7.25629404 28.9093862,6.96604088 C28.7642581,7.08214214 28.5538254,7.176473 28.2780819,7.24903629 C28.0023383,7.32159958 27.6975738,7.39416178 27.363779,7.46672507 C27.0299842,7.53928836 26.6961944,7.56105702 26.3623996,7.5320317 C26.0286048,7.50300639 25.7456092,7.45946907 25.5134041,7.40141844 C25.4843785,7.31434249 25.4626096,7.24903651 25.4480968,7.20549854 C25.4335839,7.16196056 25.4190713,7.1039108 25.4045585,7.03134751 C25.3900457,6.95878423 25.3827894,6.90073447 25.3827894,6.85719649 C25.3827894,6.81365852 25.3682768,6.76286498 25.3392512,6.70481435 C25.1360717,6.00820678 24.8313072,5.34789075 24.4249483,4.72384647 C24.0185894,4.09980219 23.5396737,3.57009813 22.9881866,3.1347184 C22.4366996,2.69933866 21.8344267,2.35829632 21.18135,2.11158114 C20.5282732,1.86486596 19.86795,1.79955998 19.2003604,1.91566124 C19.2293861,1.85761061 19.2729239,1.82132951 19.3309751,1.80681685 C19.3890264,1.7923042 19.4470768,1.77053554 19.5051281,1.74151022 C19.5631793,1.7124849 19.6212297,1.69797246 19.679281,1.69797246 C19.7373322,1.69797246 19.7953826,1.66894758 19.8534339,1.61089695 C19.9405108,1.61089695 20.0928931,1.57461585 20.3105853,1.50205256 C20.5282776,1.42948928 20.7532229,1.3641833 20.9854279,1.30613267 C21.217633,1.24808203 21.4062968,1.15375117 21.551425,1.02313725 C21.6965531,0.892523335 21.7255783,0.754655154 21.6385014,0.609528577 C21.5804502,0.464402 21.4208116,0.40635224 21.1595809,0.435377555 C20.8983502,0.464402871 20.6153545,0.522452631 20.3105853,0.609528577 C20.0058162,0.696604523 19.7083079,0.805447824 19.4180516,0.936061743 C19.1277953,1.06667566 18.9391315,1.13198164 18.8520546,1.13198164 C18.9681571,1.10295633 19.1132831,1.04490657 19.2874369,0.957830621 C19.4615907,0.870754675 19.6212293,0.790936254 19.7663574,0.718372966 C19.9114856,0.645809677 20.042099,0.536966377 20.1582015,0.3918398 C20.2743041,0.246713222 20.3468671,0.116101262 20.3758927,0 C20.1727133,0 19.9695369,0.0362811001 19.7663574,0.108844389 C19.563178,0.181407677 19.3600016,0.253969878 19.1568222,0.326533166 C18.9536428,0.399096455 18.764979,0.507939755 18.5908252,0.653066333 C18.4166714,0.79819291 18.2570328,0.92880487 18.1119046,1.04490613 C18.1699559,0.986855501 18.22075,0.921549521 18.2642884,0.848986232 C18.3078269,0.776422944 18.3513647,0.711116964 18.3949031,0.653066333 C18.4384416,0.595015702 18.4674668,0.515197281 18.4819796,0.413608677 C18.4964924,0.312020073 18.5182613,0.246714093 18.5472869,0.217688778 C17.9957999,0.536967248 17.4951152,0.965084229 17.0452179,1.50205256 C16.5953206,2.0390209 16.1889678,2.60500606 15.8261474,3.20002503 C15.463327,3.795044 15.1295372,4.44084758 14.8247681,5.13745515 C14.5199989,5.83406272 14.2370033,6.5161474 13.9757726,7.18372966 C13.7725931,7.00957777 13.576673,6.82817227 13.3880064,6.63950771 C13.1993398,6.45084316 13.010676,6.29120632 12.8220094,6.1605924 C12.6333428,6.02997848 12.4519353,5.8921103 12.2777815,5.74698373 C12.1036277,5.60185715 11.9439891,5.50027007 11.7988609,5.44221944 C11.3344508,5.1809916 10.8482787,4.93428012 10.3403302,4.70207759 C9.83238158,4.46987507 9.27364652,4.20865115 8.66410822,3.918398 C8.05456992,3.62814484 7.39424667,3.34515226 6.68311865,3.06941176 C5.97199064,2.79367127 5.18105399,2.48165381 4.31028499,2.13335002 C4.28125936,2.45262849 4.31028456,2.76464595 4.39736146,3.06941176 C4.48443836,3.37417758 4.62230805,3.69345126 4.81097466,4.02724238 C4.99964128,4.36103351 5.26086806,4.67305097 5.59466285,4.96330413 C5.92845763,5.25355728 6.3275541,5.54380608 6.79196423,5.83405924 C6.70488733,5.80503392 6.58878654,5.7977777 6.44365837,5.81229036 C6.29853021,5.82680302 6.14614792,5.84131546 5.98650694,5.85582812 C5.82686595,5.87034077 5.66722736,5.89936565 5.50758638,5.94290363 C5.3479454,5.9864416 5.18105051,6.00821026 5.00689671,6.00821026 C5.06494798,6.35651405 5.16653617,6.66853151 5.31166434,6.944272 C5.4567925,7.2200125 5.65996889,7.49574886 5.92119959,7.77148936 C6.18243029,8.04722985 6.50170746,8.27217268 6.8790407,8.44632457 C7.25637393,8.62047646 7.7207771,8.79462574 8.27226413,8.96877763 C8.01103343,8.93975232 7.78608815,8.95426476 7.59742153,9.01231539 C7.40875491,9.07036602 7.23460372,9.12115956 7.07496274,9.16469753 C6.91532176,9.20823551 6.77019577,9.28079771 6.63958042,9.38238631 C6.50896507,9.48397492 6.38560798,9.59281822 6.26950545,9.70891948 C6.38560798,9.941122 6.54524657,10.1660648 6.748426,10.3837547 C6.95160543,10.6014446 7.19831962,10.8118749 7.48857595,11.0150521 C7.77883228,11.2182294 8.11987836,11.3560975 8.51172441,11.4286608 C8.90357046,11.5012241 9.36071732,11.5229928 9.88317872,11.4939675 C9.30266606,11.6971447 8.93985108,11.9656248 8.79472292,12.2994159 C8.64959475,12.6332071 8.64959475,12.9234559 8.79472292,13.170171 C8.93985108,13.4168862 9.19382156,13.6273166 9.55664198,13.8014685 C9.9194624,13.9756204 10.3185589,14.0191577 10.7539434,13.9320818 C9.9992769,14.7447906 9.14303356,15.3398006 8.18518766,15.7171297 C7.22734177,16.0944588 6.25499764,16.2903768 5.2681261,16.3048894 C4.28125457,16.3194021 3.33067934,16.1452528 2.41637189,15.7824364 C1.50206444,15.4196199 0.696615199,14.9189407 0,14.2803838 C1.8286149,16.7475356 4.07806774,18.3946976 6.748426,19.2219191 C9.41878426,20.0491405 12.052821,20.2160336 14.6506152,19.7226032 C17.2484093,19.2291729 19.5704252,18.177021 21.6167323,16.566116 C23.6630395,14.955211 24.9909423,12.9307256 25.6004806,10.4925991 C26.0358651,10.5216244 26.4277052,10.4925995 26.7760128,10.4055236 C27.1243204,10.3184476 27.4435976,10.2241168 27.7338539,10.1225282 C28.0241103,10.0209396 28.2780808,9.88307137 28.495773,9.70891948 C28.7134653,9.53476758 28.8948727,9.37513074 29.0400009,9.23000417 L29.0400009,9.18646641 Z" id="Path"></path>
                    </g>
                </g>
            </g>
        </g>
    </g>
</svg>